<?xml version="1.0" encoding="UTF-8" standalone="no"?><!DOCTYPE svg PUBLIC "-//W3C//DTD SVG 1.1//EN" "http://www.w3.org/Graphics/SVG/1.1/DTD/svg11.dtd"><svg width="100%" height="100%" viewBox="0 0 48 48" version="1.1" xmlns="http://www.w3.org/2000/svg" xmlns:xlink="http://www.w3.org/1999/xlink" xml:space="preserve" xmlns:serif="http://www.serif.com/" style="fill-rule:evenodd;clip-rule:evenodd;stroke-linejoin:round;stroke-miterlimit:2;"><path d="M23.952,0c-13.491,0 -23.952,9.886 -23.952,23.233c0,6.982 2.862,13.018 7.521,17.185c0.389,0.348 0.629,0.839 0.641,1.366l0.131,4.263c0.042,1.359 1.443,2.245 2.689,1.695l4.754,-2.096c0.401,-0.18 0.856,-0.21 1.282,-0.096c2.185,0.599 4.509,0.922 6.934,0.922c13.49,0 23.951,-9.886 23.951,-23.233c0,-13.347 -10.461,-23.239 -23.951,-23.239Z" style="fill:#808080;fill-rule:nonzero;"/><path d="M9.569,30.029l7.035,-11.161c1.12,-1.779 3.515,-2.216 5.198,-0.958l5.599,4.197c0.515,0.384 1.221,0.384 1.73,-0.006l7.557,-5.736c1.006,-0.766 2.323,0.443 1.653,1.515l-7.042,11.155c-1.12,1.779 -3.515,2.216 -5.198,0.958l-5.598,-4.197c-0.515,-0.383 -1.222,-0.383 -1.731,0.006l-7.557,5.736c-1.006,0.767 -2.323,-0.437 -1.646,-1.509Z" style="fill:#fff;fill-rule:nonzero;"/></svg>