<svg clip-rule="evenodd" fill-rule="evenodd" stroke-linejoin="round" stroke-miterlimit="2" viewBox="0 0 24 24" width="24" height="24" xmlns="http://www.w3.org/2000/svg"><g fill-rule="nonzero"><path d="m22.675 24c.732 0 1.325-.593 1.325-1.325v-21.35c0-.732-.593-1.325-1.325-1.325h-21.35c-.732 0-1.325.593-1.325 1.325v21.35c0 .732.593 1.325 1.325 1.325z" fill="#818181"/><path d="m16.56 24v-9.294h3.119l.467-3.622h-3.586v-2.313c0-1.048.291-1.763 1.795-1.763l1.917-.001v-3.239c-.331-.045-1.47-.143-2.794-.143-2.766 0-4.659 1.688-4.659 4.788v2.671h-3.128v3.622h3.128v9.294z" fill="#fff"/></g></svg>
