<?xml version="1.0" encoding="UTF-8" standalone="no"?><!DOCTYPE svg PUBLIC "-//W3C//DTD SVG 1.1//EN" "http://www.w3.org/Graphics/SVG/1.1/DTD/svg11.dtd"><svg width="100%" height="100%" viewBox="0 0 24 24" version="1.1" xmlns="http://www.w3.org/2000/svg" xmlns:xlink="http://www.w3.org/1999/xlink" xml:space="preserve" xmlns:serif="http://www.serif.com/" style="fill-rule:evenodd;clip-rule:evenodd;stroke-linejoin:round;stroke-miterlimit:2;"><path d="M12.034,0.019c-6.659,0 -12.034,5.5 -12.034,12.313c0,5.417 3.45,10.014 8.264,11.655c0.641,0.082 0.802,-0.246 0.802,-0.574l-0,-2.134c-3.37,0.738 -4.092,-1.642 -4.092,-1.642c-0.561,-1.396 -1.364,-1.806 -1.364,-1.806c-1.123,-0.739 0.081,-0.739 0.081,-0.739c1.203,0.082 1.845,1.232 1.845,1.232c1.043,1.887 2.808,1.313 3.53,0.985c0.08,-0.821 0.401,-1.314 0.802,-1.642c-2.647,-0.328 -5.455,-1.396 -5.455,-6.074c-0,-1.314 0.481,-2.463 1.203,-3.283c-0.16,-0.329 -0.562,-1.56 0.08,-3.284c0,0 1.043,-0.328 3.29,1.231c0.962,-0.246 2.005,-0.41 3.048,-0.41c1.043,0 2.086,0.164 3.049,0.41c2.327,-1.559 3.289,-1.231 3.289,-1.231c0.642,1.724 0.241,2.955 0.081,3.284c0.802,0.82 1.203,1.969 1.203,3.283c0,4.761 -2.808,5.746 -5.455,6.074c0.401,0.41 0.802,1.149 0.802,2.298l-0,3.366c-0,0.328 0.241,0.738 0.802,0.574c4.814,-1.641 8.184,-6.238 8.184,-11.656c0.08,-6.73 -5.296,-12.23 -11.955,-12.23Z" style="fill:#808080;"/></svg>