<svg clip-rule="evenodd" fill-rule="evenodd" stroke-linejoin="round" stroke-miterlimit="2" viewBox="0 0 24 24" xmlns="http://www.w3.org/2000/svg"><path d="m7.119 21.645c9.293 0 14.375-7.699 14.375-14.375 0-.219-.004-.436-.014-.653.986-.713 1.844-1.603 2.52-2.616-.905.402-1.879.673-2.901.795 1.043-.625 1.844-1.615 2.221-2.794-.976.578-2.057.999-3.208 1.226-.922-.982-2.234-1.596-3.688-1.596-2.79 0-5.053 2.262-5.053 5.051 0 .397.045.783.131 1.152-4.199-.211-7.922-2.221-10.414-5.278-.434.746-.684 1.614-.684 2.539 0 1.753.892 3.3 2.249 4.206-.829-.026-1.608-.253-2.289-.632v.064c0 2.447 1.741 4.49 4.053 4.953-.425.116-.871.178-1.332.178-.325 0-.642-.032-.95-.091.643 2.007 2.508 3.468 4.72 3.509-1.729 1.355-3.908 2.162-6.275 2.162-.408 0-.81-.023-1.205-.069 2.236 1.433 4.891 2.269 7.744 2.269" fill="#808080" fill-rule="nonzero"/></svg>